<svg xmlns="http://www.w3.org/2000/svg" viewBox="0 0 64 64">
  <defs>
    <linearGradient id="bg" x1="0" y1="0" x2="1" y2="1">
      <stop offset="0%" stop-color="#2563eb" />
      <stop offset="100%" stop-color="#7c3aed" />
    </linearGradient>
  </defs>
  <rect x="4" y="4" width="56" height="56" rx="14" fill="url(#bg)" />
  <path d="M32 14c-6.9 5.1-14.3 6.5-14.3 6.5v11.2c0 8.1 5.2 15.3 14.3 18.3 9.1-3 14.3-10.2 14.3-18.3V20.5S38.9 19.1 32 14z" fill="#ffffff" />
  <path d="M32 19.5c-4.8 3.3-9.7 4.5-9.7 4.5v7.7c0 5.8 3.7 11 9.7 13.2 6-2.2 9.7-7.4 9.7-13.2V24s-4.9-1.2-9.7-4.5z" fill="#2563eb" opacity="0.18" />
</svg>
